PathFileType	4	(X/Y/Z)	flex.trc
DataRate	CameraRate	NumFrames	NumMarkers	Units	OrigDataRate	OrigDataStartFrame	OrigNumFrames
100.0	100.0	6	17	mm	100.0	1184	1352
Frame#	Time	STER			XIPH			T10			T1			CLAV_AC			SCAP_AA			SCAP_CP			SCAP_TS			SCAP_IA			DELT			ARMl			EPICm			EPICl			LARM_elb			STYLr			STYLu			CLAV_SC		
		X1	Y1	Z1	X2	Y2	Z2	X3	Y3	Z3	X4	Y4	Z4	X5	Y5	Z5	X6	Y6	Z6	X7	Y7	Z7	X8	Y8	Z8	X9	Y9	Z9	X10	Y10	Z10	X11	Y11	Z11	X12	Y12	Z12	X13	Y13	Z13	X14	Y14	Z14	X15	Y15	Z15	X16	Y16	Z16	X17	Y17	Z17

1184	11.83	384.739990234375	84.69881439208984	1442.238037109375	381.7521057128906	141.7606658935547	1279.599609375	370.1014404296875	-95.9219970703125	1240.16357421875	357.7334289550781	-76.06948852539062	1469.755615234375	564.3116455078125	-10.222777366638184	1464.934814453125	565.0518798828125	-55.09357452392578	1444.9871826171875	508.880126953125	-59.760581970214844	1472.5291748046875	491.29034423828125	-111.51469421386719	1416.4239501953125	475.9398193359375	-116.68003845214844	1278.686767578125	643.2406616210938	-37.22127151489258	1321.4356689453125	659.4832153320312	-49.99520492553711	1275.7640380859375	664.6312255859375	5.288241863250732	1116.5933837890625	726.1158447265625	-59.0504150390625	1174.4923095703125	679.244873046875	-40.15399932861328	1109.9603271484375	923.90087890625	46.90065383911133	1010.27978515625	862.7051391601562	37.19561004638672	956.89990234375	420.5334777832031	74.39601135253906	1446.6220703125
1185	11.84	384.7204284667969	84.56686401367188	1442.1943359375	381.8174743652344	141.67608642578125	1279.618408203125	370.17694091796875	-95.98918914794922	1240.1094970703125	357.9461669921875	-76.247314453125	1469.717041015625	564.4454345703125	-10.367740631103516	1464.854248046875	565.1527709960938	-55.23897171020508	1444.893310546875	509.0413818359375	-59.906349182128906	1472.43505859375	491.4579772949219	-111.64952087402344	1416.2691650390625	476.0312194824219	-116.75373840332031	1278.6357421875	642.4912109375	-37.43798065185547	1321.317626953125	659.5638427734375	-50.10066604614258	1275.6591796875	664.8084716796875	5.299678802490234	1116.62890625	726.1681518554688	-59.166873931884766	1174.3857421875	679.2984008789062	-40.20616149902344	1109.863525390625	923.9596557617188	46.75945281982422	1010.1569213867188	862.7496948242188	37.09002685546875	956.7653198242188	420.6219787597656	74.29940795898438	1446.5755615234375
1186	11.85	385.0418701171875	84.51129913330078	1442.2548828125	381.9797058105469	141.5944366455078	1279.6591796875	370.2503662109375	-96.05805206298828	1240.091064453125	358.1542053222656	-76.42194366455078	1469.644775390625	564.627197265625	-10.520167350769043	1464.805419921875	565.2645263671875	-55.39897155761719	1444.7822265625	509.85955810546875	-59.95271301269531	1472.465087890625	491.5956115722656	-111.76669311523438	1416.1353759765625	476.1432189941406	-116.81564331054688	1278.544189453125	642.5697631835938	-37.58198547363281	1321.2259521484375	659.6644897460938	-50.21939468383789	1275.5498046875	664.7998657226562	5.1504902839660645	1116.46533203125	726.296875	-59.266014099121094	1174.2625732421875	679.3825073242188	-40.29275894165039	1109.7864990234375	923.9851684570312	46.62567901611328	1010.00537109375	862.8192749023438	36.977882385253906	956.650146484375	420.6218566894531	74.1534652709961	1446.5145263671875
1187	11.86	385.13006591796875	84.42272186279297	1442.28466796875	382.0573425292969	141.49374389648438	1279.66064453125	370.307861328125	-96.09945678710938	1240.0673828125	358.3357238769531	-76.59426879882812	1469.576904296875	564.7254638671875	-10.681653022766113	1464.724365234375	565.434326171875	-55.54713439941406	1444.698486328125	510.0126037597656	-60.09408187866211	1472.4136962890625	491.6888427734375	-111.89179992675781	1416.0338134765625	476.2570495605469	-116.9008560180664	1278.4522705078125	642.6737060546875	-37.7320556640625	1321.167236328125	659.7782592773438	-50.349578857421875	1275.462646484375	664.8235473632812	5.0357584953308105	1116.45263671875	726.3084716796875	-59.37818908691406	1174.146484375	679.43115234375	-40.395668029785156	1109.68017578125	924.1461181640625	46.509037017822266	1009.9005126953125	862.8817138671875	36.872379302978516	956.5183715820312	420.8760986328125	74.10131072998047	1446.44970703125
1188	11.870000000000001	385.3387145996094	84.37692260742188	1442.0950927734375	382.20941162109375	141.4226531982422	1279.6925048828125	370.3814392089844	-96.16838073730469	1240.0465087890625	358.5811462402344	-76.74994659423828	1469.5111083984375	564.9072265625	-10.806073188781738	1464.72607421875	565.5757446289062	-55.657798767089844	1444.6278076171875	510.1754150390625	-60.22378921508789	1472.3460693359375	491.9121398925781	-111.9884033203125	1415.93994140625	476.4849548339844	-116.96755981445312	1278.3394775390625	643.1061401367188	-37.79826354980469	1320.70947265625	659.8843994140625	-50.485130310058594	1275.3634033203125	664.9622192382812	4.9317731857299805	1116.3487548828125	726.3723754882812	-59.5033073425293	1174.01025390625	679.5327758789062	-40.50108337402344	1109.589111328125	924.1716918945312	46.38811492919922	1009.7364501953125	862.9047241210938	36.768653869628906	956.3651733398438	420.9532775878906	74.01713562011719	1446.40185546875
1189	11.88	385.41009521484375	84.27617645263672	1442.0565185546875	382.2891845703125	141.3446044921875	1279.6839599609375	370.4835510253906	-96.2159194946289	1240.0284423828125	358.80938720703125	-76.9204330444336	1469.4580078125	565.0899047851562	-10.924118995666504	1464.625	565.74853515625	-55.798648834228516	1444.541015625	510.3375549316406	-60.33859634399414	1472.3016357421875	492.1145935058594	-112.10385131835938	1415.8453369140625	476.5966491699219	-117.04513549804688	1278.2293701171875	642.8152465820312	-38.03975296020508	1321.005615234375	659.9835815429688	-50.583885192871094	1275.252685546875	664.9115600585938	4.749442100524902	1116.2506103515625	726.5321044921875	-59.60797882080078	1173.91943359375	679.6148681640625	-40.6207160949707	1109.4847412109375	924.2847290039062	46.27690505981445	1009.6057739257812	862.9735717773438	36.676055908203125	956.2177124023438	421.0602111816406	73.94161987304688	1446.3472900390625
